<svg width="16" height="15" viewBox="0 0 16 15" fill="none" xmlns="http://www.w3.org/2000/svg">
<path d="M11.3333 13.3333H4.66667C4.29867 13.3333 4 13.632 4 14C4 14.368 4.29867 14.6667 4.66667 14.6667H11.3333C11.7013 14.6667 12 14.368 12 14C12 13.632 11.7013 13.3333 11.3333 13.3333Z" fill="#5E72E4"/>
<path fill-rule="evenodd" clip-rule="evenodd" d="M0.666667 0H15.3333C15.7013 0 16 0.298667 16 0.666667V11.3333C16 11.7013 15.7013 12 15.3333 12H0.666667C0.298667 12 0 11.7013 0 11.3333V0.666667C0 0.298667 0.298667 0 0.666667 0ZM1.33333 10.6667H14.6667V1.33333H1.33333V10.6667Z" fill="#5E72E4"/>
</svg>
