<svg width="13" height="16" viewBox="0 0 13 16" fill="none" xmlns="http://www.w3.org/2000/svg">
<path fill-rule="evenodd" clip-rule="evenodd" d="M0 6.26087C0 2.36522 3.2 0 6.26087 0C9.32174 0 12.5217 2.36522 12.5217 6.26087C12.5217 9.94783 6.95652 15.5826 6.74783 15.7913C6.6087 15.9304 6.46957 16 6.26087 16C6.05217 16 5.91304 15.9304 5.77391 15.7913C5.56522 15.5826 0 9.94783 0 6.26087ZM4.17391 6.26087C4.17391 7.44348 5.07826 8.34783 6.26087 8.34783C7.44348 8.34783 8.34783 7.44348 8.34783 6.26087C8.34783 5.07826 7.44348 4.17391 6.26087 4.17391C5.07826 4.17391 4.17391 5.07826 4.17391 6.26087Z" fill="#FB6340"/>
</svg>
