<svg width="14" height="16" viewBox="0 0 14 16" fill="none" xmlns="http://www.w3.org/2000/svg">
<path d="M8.974 9.34866C8.28267 9.75466 7.50533 10 6.66667 10C5.828 10 5.05067 9.75466 4.35933 9.34866C1.92933 9.508 0 11.5307 0 14V15.1533L0.463333 15.302C0.552667 15.33 2.692 16 6.66667 16C10.6413 16 12.7807 15.33 12.87 15.302L13.3333 15.1533V14C13.3333 11.5307 11.404 9.508 8.974 9.34866Z" fill="#FFD600"/>
<path d="M6.66675 8.66667C8.91941 8.66667 10.6667 6.158 10.6667 4C10.6667 1.794 8.87275 0 6.66675 0C4.46075 0 2.66675 1.794 2.66675 4C2.66675 6.158 4.41408 8.66667 6.66675 8.66667Z" fill="#FFD600"/>
</svg>
