<svg width="16" height="16" viewBox="0 0 16 16" fill="none" xmlns="http://www.w3.org/2000/svg">
<path fill-rule="evenodd" clip-rule="evenodd" d="M14.5367 14.5657C14.7554 14.3463 14.7388 13.6536 14.2914 12.5848C14.5781 12.0794 14.8061 11.5393 14.9781 10.9732C16.1249 13.0428 16.327 14.661 15.4802 15.5078C14.4994 16.4886 12.5505 15.9139 10.3955 14.5824C9.47806 15.0591 8.43925 15.3325 7.33577 15.3325C3.65928 15.3325 0.668215 12.3414 0.668215 8.6649C0.668215 7.56141 0.941585 6.52261 1.41832 5.60515C0.0868041 3.45087 -0.487939 1.50127 0.491525 0.519808C1.3383 -0.326972 2.95719 -0.124945 5.02613 1.02188C4.46072 1.19456 3.92132 1.42193 3.41592 1.70863C2.34711 1.26124 1.65435 1.24457 1.43498 1.46327C1.15895 1.73997 1.35831 2.80011 2.24109 4.37299C3.46525 2.92213 5.2935 1.99734 7.33577 1.99734C11.0123 1.99734 14.0033 4.9884 14.0033 8.6649C14.0033 10.7072 13.0785 12.5354 11.627 13.7602C13.1999 14.6424 14.26 14.8424 14.5367 14.5657ZM3.33524 8.99827C3.33524 9.55035 3.7833 9.99841 4.33537 9.99841C4.88744 9.99841 5.3355 9.55035 5.3355 8.99827C5.3355 8.4462 4.88744 7.99814 4.33537 7.99814C3.7833 7.99814 3.33524 8.4462 3.33524 8.99827ZM8.66928 11.3319C8.30123 11.3319 8.00253 11.0332 8.00253 10.6652C8.00253 10.2971 8.30123 9.99841 8.66928 9.99841C9.03733 9.99841 9.33604 10.2971 9.33604 10.6652C9.33604 11.0332 9.03733 11.3319 8.66928 11.3319ZM7.33577 6.33125C7.33577 6.88332 7.78383 7.33138 8.33591 7.33138C8.88798 7.33138 9.33604 6.88332 9.33604 6.33125C9.33604 5.77918 8.88798 5.33112 8.33591 5.33112C7.78383 5.33112 7.33577 5.77918 7.33577 6.33125Z" fill="#5E72E4"/>
</svg>
