<svg width="13" height="12" viewBox="0 0 13 12" fill="none" xmlns="http://www.w3.org/2000/svg">
<path d="M12.5859 5.5C12.5859 5.77604 12.4896 6.01042 12.2969 6.20312L7.21094 11.2969C7.00781 11.4896 6.77083 11.5859 6.5 11.5859C6.22396 11.5859 5.98958 11.4896 5.79688 11.2969L0.710938 6.20312C0.513021 6.01562 0.414063 5.78125 0.414063 5.5C0.414063 5.22396 0.513021 4.98698 0.710938 4.78906L1.28906 4.20312C1.49219 4.01042 1.72917 3.91406 2 3.91406C2.27604 3.91406 2.51042 4.01042 2.70313 4.20312L5 6.5V1C5 0.729166 5.09896 0.494791 5.29688 0.296875C5.49479 0.0989578 5.72917 -5.96046e-07 6 -5.96046e-07H7C7.27083 -5.96046e-07 7.50521 0.0989578 7.70313 0.296875C7.90104 0.494791 8 0.729166 8 1V6.5L10.2969 4.20312C10.4896 4.01042 10.724 3.91406 11 3.91406C11.2708 3.91406 11.5078 4.01042 11.7109 4.20312L12.2969 4.78906C12.4896 4.99219 12.5859 5.22917 12.5859 5.5Z" fill="#F5365C"/>
</svg>
