<svg width="13" height="12" viewBox="0 0 13 12" fill="none" xmlns="http://www.w3.org/2000/svg">
<path d="M12.5859 6.58594C12.5859 6.85156 12.4896 7.08594 12.2969 7.28906L11.7109 7.875C11.513 8.07292 11.276 8.17187 11 8.17187C10.7188 8.17187 10.4844 8.07292 10.2969 7.875L8 5.58594V11.0859C8 11.3568 7.90104 11.5755 7.70313 11.7422C7.51042 11.9141 7.27604 12 7 12H6C5.72396 12 5.48698 11.9141 5.28906 11.7422C5.09635 11.5755 5 11.3568 5 11.0859V5.58594L2.70313 7.875C2.51563 8.07292 2.28125 8.17187 2 8.17187C1.71875 8.17187 1.48438 8.07292 1.29688 7.875L0.710938 7.28906C0.513021 7.09115 0.414063 6.85677 0.414063 6.58594C0.414063 6.3099 0.513021 6.07292 0.710938 5.875L5.79688 0.789062C5.97917 0.596353 6.21354 0.499999 6.5 0.499999C6.78125 0.499999 7.01823 0.596353 7.21094 0.789062L12.2969 5.875C12.4896 6.07812 12.5859 6.3151 12.5859 6.58594Z" fill="#2DCE89"/>
</svg>
