<svg width="16" height="16" viewBox="0 0 16 16" fill="none" xmlns="http://www.w3.org/2000/svg">
<path d="M2.18182 4.36364C3.3868 4.36364 4.36364 3.3868 4.36364 2.18182C4.36364 0.976833 3.3868 0 2.18182 0C0.976833 0 0 0.976833 0 2.18182C0 3.3868 0.976833 4.36364 2.18182 4.36364Z" fill="#F5365C"/>
<path d="M2.18182 10.1818C3.3868 10.1818 4.36364 9.20498 4.36364 7.99999C4.36364 6.79501 3.3868 5.81818 2.18182 5.81818C0.976833 5.81818 0 6.79501 0 7.99999C0 9.20498 0.976833 10.1818 2.18182 10.1818Z" fill="#F5365C"/>
<path d="M2.18182 16C3.3868 16 4.36364 15.0232 4.36364 13.8182C4.36364 12.6132 3.3868 11.6364 2.18182 11.6364C0.976833 11.6364 0 12.6132 0 13.8182C0 15.0232 0.976833 16 2.18182 16Z" fill="#F5365C"/>
<rect x="5.81812" y="1.45454" width="10.1818" height="1.45455" fill="#F5365C"/>
<rect x="5.81812" y="7.27272" width="10.1818" height="1.45455" fill="#F5365C"/>
<rect x="5.81812" y="13.0909" width="10.1818" height="1.45455" fill="#F5365C"/>
</svg>
